<?xml version="1.0" encoding="UTF-8"?>
<svg xmlns="http://www.w3.org/2000/svg" xmlns:xlink="http://www.w3.org/1999/xlink" width="365pt" height="91.82pt" viewBox="0 0 365 91.82" version="1.1">
<g id="surface1">
<path style=" stroke:none;fill-rule:nonzero;fill:rgb(18.798828%,46.299744%,73.699951%);fill-opacity:1;" d="M 117.835938 35.871094 C 117.835938 29.316406 111.480469 22.363281 100.460938 22.363281 C 88.082031 22.363281 74.503906 31.425781 72.402344 49.535156 C 70.28125 67.84375 81.679688 75.933594 93.132813 75.933594 C 104.582031 75.933594 110.609375 71.472656 116.730469 65.492188 C 111.445313 58.835938 104.628906 61.933594 103.339844 62.582031 C 101.914063 63.296875 100.042969 64.285156 96.242188 64.285156 C 91.804688 64.285156 87.304688 62.277344 87.304688 54.039063 C 115.671875 51.320313 117.835938 42.429688 117.835938 35.871094 Z M 103.777344 36.96875 C 103.59375 38.988281 102.765625 42.484375 88.410156 44.40625 C 91.4375 33.65625 97.210938 32.859375 99.878906 32.859375 C 102.378906 32.859375 103.972656 34.796875 103.777344 36.96875 Z M 55.730469 38.714844 C 55.730469 38.714844 49.628906 57.847656 49.15625 59.453125 C 48.992188 57.847656 44.527344 23.480469 44.527344 23.480469 C 34.136719 23.480469 28.578125 30.863281 25.648438 38.707031 C 25.648438 38.707031 18.226563 57.894531 17.625 59.5 C 17.589844 57.996094 16.484375 38.90625 16.484375 38.90625 C 15.855469 29.3125 7.097656 23.503906 0 23.503906 L 8.535156 75.570313 C 19.4375 75.535156 25.273438 68.164063 28.351563 60.335938 C 28.351563 60.335938 34.878906 43.40625 35.148438 42.636719 C 35.214844 43.371094 39.84375 75.570313 39.84375 75.570313 C 50.753906 75.570313 56.640625 68.667969 59.808594 61.121094 L 75.117188 23.503906 C 64.335938 23.503906 58.660156 30.867188 55.730469 38.714844 Z M 157.90625 22.292969 C 151.199219 22.292969 146.03125 25.9375 141.679688 31.324219 L 141.6875 31.285156 L 145.554688 0 C 136.625 0 129.328125 7.773438 127.941406 19.304688 L 121.148438 75.164063 C 126.300781 75.164063 131.757813 73.667969 134.703125 69.882813 C 137.339844 73.269531 141.257813 75.96875 147.058594 75.96875 C 162.117188 75.96875 172.46875 58.464844 172.46875 42.03125 C 172.46875 27.035156 165.171875 22.292969 157.90625 22.292969 Z M 156.523438 49.128906 C 154.960938 58.316406 149.855469 64.511719 144.910156 64.511719 C 139.925781 64.511719 137.820313 62.308594 137.820313 62.308594 C 138.75 54.277344 139.367188 49.351563 141.183594 45.109375 C 142.996094 40.867188 147.28125 34.097656 151.765625 34.097656 C 156.125 34.097656 158.085938 39.945313 156.523438 49.128906 Z M 210.21875 23.507813 L 199.675781 23.507813 L 199.726563 22.957031 C 200.445313 16.074219 202.09375 12.460938 207.429688 11.90625 C 211.074219 11.53125 212.722656 9.636719 213.105469 7.589844 C 213.40625 5.984375 214.425781 0.308594 214.425781 0.308594 C 193.277344 0.1875 186.648438 9.316406 184.957031 23.191406 L 184.917969 23.503906 L 184.710938 23.511719 C 181.277344 23.511719 177.507813 27.398438 176.847656 32.335938 L 176.617188 34.152344 L 183.648438 34.152344 L 177.746094 83.015625 L 175.957031 91.796875 L 176.683594 91.820313 C 186.554688 91.445313 192.90625 83.660156 194.308594 72.324219 L 198.917969 34.152344 L 202.222656 34.152344 C 205.457031 34.152344 209.257813 30.910156 209.960938 25.492188 Z M 264.929688 22.601563 C 252.78125 22.601563 241.332031 31.542969 237.8125 45.609375 C 234.296875 59.671875 239.640625 76.277344 257.496094 76.277344 C 275.355469 76.277344 285.617188 58.96875 285.617188 44.597656 C 285.617188 30.21875 275.898438 22.601563 264.929688 22.601563 Z M 269.855469 48.710938 C 269.226563 55.089844 266.414063 64.726563 258.726563 64.726563 C 251.007813 64.726563 252.105469 53.417969 252.851563 48.050781 C 253.652344 42.296875 256.886719 34.152344 263.765625 34.152344 C 269.980469 34.152344 270.566406 41.507813 269.855469 48.710938 Z M 345.609375 38.714844 C 345.609375 38.714844 339.507813 57.847656 339.039063 59.453125 C 338.871094 57.847656 334.40625 23.480469 334.40625 23.480469 C 324.015625 23.480469 318.460938 30.863281 315.527344 38.707031 C 315.527344 38.707031 308.109375 57.894531 307.507813 59.5 C 307.472656 57.996094 306.367188 38.90625 306.367188 38.90625 C 305.738281 29.3125 296.976563 23.503906 289.882813 23.503906 L 298.414063 75.570313 C 309.316406 75.535156 315.15625 68.164063 318.234375 60.335938 C 318.234375 60.335938 324.761719 43.40625 325.03125 42.636719 C 325.097656 43.371094 329.722656 75.570313 329.722656 75.570313 C 340.632813 75.570313 346.519531 68.667969 349.6875 61.121094 L 365 23.503906 C 354.214844 23.503906 348.539063 30.867188 345.609375 38.714844 Z M 220.140625 0.308594 L 211.289063 71.699219 L 211.265625 71.6875 L 209.46875 80.515625 L 210.191406 80.539063 C 219.722656 80.421875 226.484375 72.058594 227.757813 61.511719 L 232.871094 20.535156 C 234.421875 8.054688 226.980469 0.308594 220.140625 0.308594 "/>
</g>
</svg>
